Coordinates
version=1
nRows=16
nColumns=18
inDegrees=yes

Units are S.I. units (second, meters, Newtons, ...)
If the header above contains a line with 'inDegrees', this indicates whether rotational values are in degrees (yes) or radians (no).

endheader
time	ground_thorax_rot_x	ground_thorax_rot_y	ground_thorax_rot_z	ground_thorax_tx	ground_thorax_ty	ground_thorax_tz	clav_prot	clav_elev	scapula_abduction	scapula_elevation	scapula_upward_rot	scapula_winging	plane_elv	shoulder_elv	axial_rot	elbow_flexion	pro_sup
      0.00000000	      1.15968563	     -5.43670026	    -10.32433964	      0.00000000	      0.00000000	      0.00000000	    -28.27426794	     -2.37109187	    -20.76777905	     -3.79254557	     16.34713672	      3.63811254	    -29.67546145	     14.22674464	     21.25403784	      0.00000000	     34.32000000
      0.01000000	      1.29585760	     -5.45666785	    -10.29849288	      0.00000000	      0.00000000	      0.00000000	    -28.31031420	     -2.29357174	    -20.79202418	     -3.76066442	     16.44371636	      3.58401841	    -29.36395684	     14.31077631	     20.24902429	      0.00000000	     34.32000000
      0.02000000	      1.34616597	     -5.59269606	    -10.33421998	      0.00000000	      0.00000000	      0.00000000	    -28.23418145	     -2.26572426	    -20.67007053	     -3.73524890	     16.44769225	      3.58564330	    -28.90629674	     14.21263498	     21.01411018	      0.00000000	     34.32000000
      0.03000000	      1.33935693	     -5.62938892	    -10.34104276	      0.00000000	      0.00000000	      0.00000000	    -28.23935621	     -2.26726925	    -20.67760867	     -3.73700918	     16.44851281	      3.58468064	    -28.91730904	     14.21938129	     21.01407529	      0.00000000	     34.32000000
      0.04000000	      1.28821569	     -5.64023737	    -10.32092002	      0.00000000	      0.00000000	      0.00000000	    -28.19382940	     -2.28157717	    -20.58735569	     -3.74850480	     16.46392555	      3.59161443	    -29.39883634	     14.32165523	     19.57774513	      0.00000000	     34.32000000
      0.05000000	      1.15968187	     -5.60478599	    -10.33804028	      0.00000000	      0.00000000	      0.00000000	    -28.15533665	     -2.41168563	    -20.65038011	     -3.77612684	     16.19282069	      3.70719612	    -29.08455692	     14.54257865	     17.90953259	      0.00000000	     34.32000000
      0.06000000	      1.15180958	     -5.63793423	    -10.26014846	      0.00000000	      0.00000000	      0.00000000	    -28.11279719	     -2.36603400	    -20.62145146	     -3.72650321	     16.14506697	      3.71134310	    -29.02450170	     14.59150975	     17.05551325	      0.00000000	     34.32000000
      0.07000000	      1.25717576	     -5.57389049	    -10.31847577	      0.00000000	      0.00000000	      0.00000000	    -28.14657395	     -2.37571801	    -20.65839303	     -3.74329732	     16.17300906	      3.70235100	    -29.02742337	     14.69300243	     17.09168346	      0.00000000	     34.32000000
      0.08000000	      1.23391103	     -5.40811968	    -10.36228581	      0.00000000	      0.00000000	      0.00000000	    -28.33445089	     -2.44942115	    -20.95371096	     -3.81163674	     16.17061119	      3.69910920	    -29.25407425	     14.67158970	     16.66097872	      0.00000000	     34.32000000
      0.09000000	      1.19910349	     -5.51276523	    -10.34464776	      0.00000000	      0.00000000	      0.00000000	    -28.26055980	     -2.44957998	    -20.82321623	     -3.80919366	     16.18100580	      3.70712426	    -29.38931653	     14.66576925	     16.95755374	      0.00000000	     34.32000000
      0.10000000	      1.26700532	     -5.53612701	    -10.33399046	      0.00000000	      0.00000000	      0.00000000	    -28.26314890	     -2.38182240	    -20.82168205	     -3.76866342	     16.22283210	      3.67410061	    -29.15771494	     14.61690608	     17.34652373	      0.00000000	     34.32000000
      0.11000000	      1.24126045	     -5.59621120	    -10.35647609	      0.00000000	      0.00000000	      0.00000000	    -28.21187649	     -2.39530098	    -20.70286313	     -3.78708461	     16.26994859	      3.67402658	    -29.44884701	     14.59117828	     17.70477649	      0.00000000	     34.32000000
      0.12000000	      1.49879360	     -5.56039872	    -10.34298867	      0.00000000	      0.00000000	      0.00000000	    -28.33836191	     -2.18692609	    -20.93625750	     -3.65535360	     16.33766031	      3.57474178	    -27.93615895	     14.67015989	     16.58428273	      0.00000000	     34.32000000
      0.13000000	      1.51484590	     -5.56246956	    -10.38301024	      0.00000000	      0.00000000	      0.00000000	    -28.30576990	     -2.23148044	    -20.88993979	     -3.67774237	     16.30178082	      3.60193454	    -27.99233927	     14.67425512	     16.61701020	      0.00000000	     34.32000000
      0.14000000	      1.19793536	     -5.58070046	    -10.34404312	      0.00000000	      0.00000000	      0.00000000	    -28.21063415	     -2.46877675	    -20.75857756	     -3.81000434	     16.14036470	      3.73071455	    -29.23039415	     14.76129174	     16.52788352	      0.00000000	     34.32000000
      0.15000000	      1.22609267	     -5.42256755	    -10.25517143	      0.00000000	      0.00000000	      0.00000000	    -28.32891935	     -2.34345378	    -20.99207376	     -3.72439269	     16.14425508	      3.67392490	    -29.50920017	     14.72954925	     17.18489589	      0.00000000	     34.32000000
